<svg version="1.2" xmlns="http://www.w3.org/2000/svg" viewBox="0 0 35 110" width="35" height="110">
	<title>Shu_with_feather-svg</title>
	<style>
		.s0 { fill: #0044aa;stroke: #000000;stroke-width: .4 } 
		.s1 { fill: none;stroke: #000000;stroke-linecap: round;stroke-linejoin: round;stroke-width: 3.3 } 
		.s2 { fill: none;stroke: #fac53a;stroke-linecap: round;stroke-linejoin: round;stroke-width: 2.8 } 
		.s3 { opacity: .7;fill: none;stroke: #ffffff;stroke-linecap: round;stroke-linejoin: round;stroke-width: 1.2 } 
	</style>
	<g id="g10075">
		<path id="path4007" fill-rule="evenodd" class="s0" d="m3.5 85.2l-0.1-54.9c0.6-8.3-0.2-23 14-27.2 4.4-1.3 16.1 1.2 14.8 11.7-0.2 1.9-1.6 6.3-8 5.5-1.5 0-2.5 3.1-1.6 6.9 2.1 9.5 6.1 25.3 8.4 36.8 0.5 3-0.7 4.7-2.7 5.1-19.2 3.8-22.7 8.5-23.8 16"/>
		<path id="path4201" fill-rule="evenodd" class="s1" d="m2.7 108.4l0.1-78.1c0.7-8.4 0.3-24.1 14.6-27.9 5.8-1.6 17.4 1.4 15.4 13-0.6 3.5-3.8 5.4-8.1 4.8"/>
		<path id="path4010" fill-rule="evenodd" class="s2" d="m2.7 108.4l0.1-78.1c0.7-8.4 0.3-24.1 14.6-27.9 5.8-1.6 17.4 1.4 15.4 13-0.6 3.5-3.8 5.4-8.1 4.8"/>
		<path id="path6141" fill-rule="evenodd" class="s3" d="m5 75.2c1.4-6.6 17.5-9.3 24.6-10.6"/>
		<path id="path8081" fill-rule="evenodd" class="s3" d="m4.7 68.5c4.3-6.7 16.6-7.8 23.6-9.1"/>
		<path id="path8083" fill-rule="evenodd" class="s3" d="m5.1 62.9c4.2-5.4 15.5-7.1 22.3-8.1"/>
		<path id="path8085" fill-rule="evenodd" class="s3" d="m5.1 57.7c4.5-3.9 14.2-6.1 21.3-7.4"/>
		<path id="path8087" fill-rule="evenodd" class="s3" d="m5.4 53c6.1-3.8 13.1-5.6 20.1-6.8"/>
		<path id="path8089" fill-rule="evenodd" class="s3" d="m5.2 48.6c4.9-3.1 12.2-5.4 19.2-6.7"/>
		<path id="path8091" fill-rule="evenodd" class="s3" d="m5.3 43.7c3.6-2.6 11.2-5.2 18.2-6.5"/>
		<path id="path8093" fill-rule="evenodd" class="s3" d="m5.4 39.6c3-2.8 10.1-5.6 17.1-6.8"/>
		<path id="path8095" fill-rule="evenodd" class="s3" d="m5.8 34.6c1.6-1.9 10-5.1 15.9-5.5"/>
		<path id="path8097" fill-rule="evenodd" class="s3" d="m5.9 30.9c2.1-2.8 9.4-5.3 15-5.5"/>
		<path id="path8099" fill-rule="evenodd" class="s3" d="m5.9 26.2c3.2-3.2 12-5.5 15.5-5"/>
		<path id="path8101" fill-rule="evenodd" class="s3" d="m6.7 21.1c6.1-4.2 17.9-5.7 21.8-4.7"/>
		<path id="path8103" fill-rule="evenodd" class="s3" d="m7.6 15.7c7.2-3.6 16.6-5.5 23-3.3"/>
		<path id="path8105" fill-rule="evenodd" class="s3" d="m11.6 8.8c3.9-2.5 14.7-2.9 16.9-1.3"/>
	</g>
</svg>