<svg version="1.2" xmlns="http://www.w3.org/2000/svg" viewBox="0 0 172 128" width="172" height="128">
	<title>Re-Horakhty (1)-svg</title>
	<style>
		.s0 { fill: #fac53a;stroke: #000000;stroke-width: .6 } 
		.s1 { fill: #fac53a;stroke: #000000;stroke-width: .5 } 
		.s2 { fill: #308d57 } 
		.s3 { fill: none;stroke: #000000;stroke-width: .4 } 
		.s4 { fill: #c13c1b } 
		.s5 { fill: #0044aa } 
		.s6 { fill: #000000;stroke: #000000;stroke-linecap: round;stroke-linejoin: round;stroke-width: .4 } 
		.s7 { fill: none;stroke: #000000;stroke-linecap: round;stroke-linejoin: round;stroke-width: .4 } 
		.s8 { fill: #fac53a;stroke: #000000;stroke-width: .4 } 
		.s9 { fill: #c13c1b;stroke: #c13c1b;stroke-linecap: round;stroke-linejoin: round;stroke-width: 37.3 } 
		.s10 { fill: none;stroke: #ffffff;stroke-linecap: round;stroke-linejoin: round;stroke-width: 6.4 } 
		.s11 { fill: none;stroke: #000000;stroke-linecap: round;stroke-linejoin: round;stroke-width: 7.7 } 
		.s12 { fill: none;stroke: #fac53a;stroke-linecap: round;stroke-linejoin: round;stroke-width: 6.6 } 
		.s13 { fill: none;stroke: #000000;stroke-linecap: round;stroke-linejoin: round;stroke-width: .5;stroke-dasharray: 0.4834081,3.8672648 } 
		.s14 { fill: none;stroke: #000000;stroke-linecap: round;stroke-linejoin: round;stroke-width: .4;stroke-dasharray: 0.242918622519412,5.830046718098162 } 
		.s15 { fill: none;stroke: #000000;stroke-linecap: round;stroke-linejoin: round;stroke-width: .4;stroke-dasharray: 0.9668161999999999,1.9336323999999998 } 
		.s16 { fill: none;stroke: #000000;stroke-linecap: round;stroke-linejoin: round;stroke-width: .4;stroke-dasharray: 0.19336324,2.320358918672648 } 
	</style>
	<g id="g9079">
		<path id="path23379" fill-rule="evenodd" class="s0" d="m163.7 65.3c3.7 33 4.6 24.4 7.1 47.2-0.1 1.2-1.5 1.1-1.7 0.4-2.8-16.4-7.6-19.6-9.9-33.6"/>
		<path id="path22386" fill-rule="evenodd" class="s1" d="m28.2 84.3c0.3 5.6 5.3 12.1-0.7 13-6.1 0.5-4.4-7.2-4.8-11.7 0.1-4.4 2.2-11.2 1.8-14.9-1.6-12.7-10-13.5-14.6-13.2-1.5-1.4-5.7-1.3-8.6 0.9-0.2 0.4-0.5 0.7-0.4 1.5 2 2.9 5.6 3 9.5 2.6q0.7 0.2 0.6 0.8c-3.1 2.9-3.4 5.5-3.3 8.1 1.7 8.6 3.1 18 5.2 25.7 3.8 14.3 22 7.2 23.5 2.5 1.1-1.7 0.1-5 0.1-7"/>
		<path id="path2654" fill-rule="evenodd" class="s2" d="m22.2 63.5l-0.5-0.3c-2.2-1.3-3.6-3-6.9-3.8-2.1-0.6-4.3-0.1-6.4 0.4-1.2 0.4-2.2 0.2-3.1-0.4-0.9-0.9-2.3-0.1-3.7 0l-0.5-0.1c0.1-0.3 0.2-0.6 0.4-0.8 2.8-2.2 6.8-2.3 8.3-0.9 3.5-0.2 9.1 0.2 12.4 5.9z"/>
		<path id="path4601" fill-rule="evenodd" class="s2" d="m20.7 86.4c-2.5 0.7-5.4 0.8-8 0.3 0 0 2.6 0.5-0.1-0.1q1.1 5 2.7 12.2l0.1-0.1c-0.3-3.5 5-3.6 5.5-1.8-0.5-4.1-0.1-0.2-0.1-0.2-0.4-3.9-0.3-7.3-0.1-10.3z"/>
		<path id="path22388" fill-rule="evenodd" class="s3" d="m20.8 96.7c-1.4-14.9 2.7-22.7 1.6-27.6-1.5-6.6-6-6.3-6.8-6.3-0.9 0.1-5.3 0.6-5.6 7.3-0.2 4.8 1.6 12 5.2 28.7"/>
		<path id="path4623" fill-rule="evenodd" class="s4" d="m10.6 76.4c3.7 1.4 7.8 1.8 11.5-0.5-0.5 2.8-1.2 6.3-1.4 10.6-2.6 0.7-5.4 0.7-8 0.3-1-4.4-1.6-7.7-2.1-10.4z"/>
		<path id="path22392" fill-rule="evenodd" class="s3" d="m10.6 76.5c3.7 1.4 7.7 1.7 11.4-0.6"/>
		<path id="path4633" fill-rule="evenodd" class="s5" d="m10.6 76.5c3.6 1.4 7.7 1.7 11.4-0.5 0.5-2.9 0.8-5.1 0.3-6.9-1.5-6.6-6-6.3-6.8-6.3-0.8 0.1-5.2 0.6-5.5 7.3-0.1 1.7 0.1 3.8 0.6 6.4z"/>
		<path id="path22394" fill-rule="evenodd" class="s3" d="m12.6 86.7c2.7 0.5 5.5 0.5 8-0.2"/>
		<path id="path22396" fill-rule="evenodd" class="s3" d="m1.8 59.2c1.4 0 2.4-0.8 3.3 0.1 1 0.6 1.9 0.8 3.1 0.5 2-0.5 4.5-1 6.5-0.4 3.3 0.7 5.3 2.8 7.5 4.2"/>
		<path id="path22398" fill-rule="evenodd" class="s6" d="m8.2 58.6q0 0.3-0.3 0.6-0.3 0.2-0.7 0.3-0.4-0.1-0.7-0.3-0.2-0.3-0.2-0.6 0-0.4 0.2-0.6 0.3-0.3 0.7-0.3 0.4 0 0.7 0.3 0.3 0.2 0.3 0.6z"/>
		<path id="path23371" fill-rule="evenodd" class="s3" d="m15.3 98.7c-0.2-3.5 5-3.6 5.6-1.5"/>
		<path id="path23373" fill-rule="evenodd" class="s3" d="m15.3 98.9c2.2-0.5 4.1-0.7 6-1.7"/>
		<path id="path23375" fill-rule="evenodd" class="s3" d="m17.5 101.4c2.1-0.3 3.7-1.6 4.7-2.8"/>
		<path id="path23377" fill-rule="evenodd" class="s3" d="m19.7 102.7c1.7-0.8 2.8-1.5 3.8-3"/>
		<g id="g7619">
			<path id="path7593" fill-rule="evenodd" class="s3" d="m20.7 96.7c-1.3-14.9 2.8-22.7 1.6-27.6-1.5-6.6-6-6.3-6.8-6.3-0.8 0.1-5.2 0.6-5.5 7.3-0.2 4.8 1.6 12 5.2 28.7"/>
			<path id="path7597" fill-rule="evenodd" class="s3" d="m10.6 76.5c3.6 1.4 7.7 1.7 11.4-0.6"/>
			<path id="path7601" fill-rule="evenodd" class="s3" d="m12.6 86.7c2.6 0.5 5.5 0.5 8-0.2"/>
			<path id="path7609" fill-rule="evenodd" class="s7" d="m15.3 98.7c-0.2-3.5 5-3.6 5.6-1.5"/>
		</g>
		<path id="path22390" fill-rule="evenodd" class="s8" d="m17 96.1c-1.9-11.1-0.7-21.2-2.5-32.9 0.8-0.4 1.6-0.4 2.4-0.2 2.2 7.5 0.5 22.6 2.3 33"/>
		<path id="path19323" fill-rule="evenodd" class="s9" d="m140.5 64c0 30.6-21 44-48.8 44-27.7 0-48.2-14.8-47.7-44 0.4-29.3 20-44.1 47.7-44.1 27.8 0 48.8 13.9 48.8 44.1z"/>
		<path id="path31198" fill-rule="evenodd" class="s10" d="m158.8 63.7c0 40.8-27.9 58.7-64.9 58.7-37 0-64.3-19.7-63.7-58.7 0.6-38.9 26.7-58.6 63.7-58.6 37 0 64.9 18.5 64.9 58.6z"/>
		<path id="path28287" fill-rule="evenodd" class="s11" d="m160 63.7c0 41.6-28.5 59.9-66.2 59.9-37.8 0-65.6-20.1-65-59.9 0.6-39.8 27.2-59.9 65-59.9 37.7 0 66.2 18.9 66.2 59.9z"/>
		<path id="path21264" fill-rule="evenodd" class="s12" d="m160 63.7c0 41.6-28.5 59.9-66.2 59.9-37.8 0-65.6-20.1-65-59.9 0.6-39.8 27.2-59.9 65-59.9 37.7 0 66.2 18.9 66.2 59.9z"/>
		<path id="path7647" fill-rule="evenodd" class="s13" d="m161.8 63.5c0 42.9-29.4 61.7-68.3 61.7-38.9 0-67.5-20.7-66.9-61.7 0.6-40.9 28-61.6 66.9-61.6 38.9 0 68.3 19.4 68.3 61.6z"/>
		<path id="path10558" fill-rule="evenodd" class="s14" d="m160.3 63.5c0 42-28.5 60.5-66.3 60.5-37.7 0-65.5-20.3-64.9-60.5 0.6-40.1 27.2-60.4 64.9-60.4 37.8 0 66.3 19 66.3 60.4z"/>
		<path id="path14436" fill-rule="evenodd" class="s15" d="m14.5 99.5c3 6.5 11.3 7.2 19.6 1.2"/>
		<path id="path17345" fill-rule="evenodd" class="s16" d="m15.5 100.3c3.3 3.5 6.9 6.5 18.3 0.1"/>
		<path id="path19287" fill-rule="evenodd" class="s7" d="m15.3 98.6c-0.3-2.2 3.7-4.1 5.6-1.5"/>
	</g>
</svg>