<svg version="1.2" xmlns="http://www.w3.org/2000/svg" viewBox="0 0 22 542" width="22" height="542">
	<title>Was-sceptre</title>
	<style>
		.s0 { fill: #002255;stroke: #000000;stroke-linecap: round;stroke-linejoin: round;stroke-width: .4 } 
	</style>
	<path id="path2722" fill-rule="evenodd" class="s0" d="m1.1 41.8c0.7-7.1-0.4-13.4 2.5-22 3.6-10.6 7.2-12.5 11.3-18 1.6-1.3 4.2 0.1 3.3 2.5-4.8 4.5-8.2 10.6-9.6 14.1 1.4-0.1 8.4-0.7 8.5 6.5v492.9c7.8 8.9 1.1 15.7 1.5 23.4-0.8 0.4-1.4 0.2-1.5-0.5-1-8.5 1.9-12.1 0-16.5-1-2.1-2.7-2-3.6-0.3-2.2 3.9 0.8 6.3 0 16.7 0 0.8-1 1-1.3 0.5-0.5-7.7-5.9-14.3 1.2-23.3v-492.3c-0.4-4-4.7-4.4-6.9 0.1-2.5 5.4-1.5 10.9-2.2 16.3-1.1 3.5-3.4 2.2-3.2-0.1z"/>
</svg>